<svg xmlns="http://www.w3.org/2000/svg" width="158" height="30" viewBox="0 0 158 30" fill="none"><path d="M131.077 10.3752L124.563 26.5503L118.049 10.3752H114.316L122.664 29.9901H126.465L134.793 10.3752H131.077Z" fill="#5162FF"></path><path fill-rule="evenodd" clip-rule="evenodd" d="M49.1797 14.1079V15.0789C49.1797 15.0789 49.1797 15.0789 49.1797 15.0757V14.1079ZM52.3923 14.391L52.4055 15.8492V14.391H52.3923Z" fill="#5162FF"></path><path fill-rule="evenodd" clip-rule="evenodd" d="M22.8633 20.1843C22.8633 14.9045 27.1424 10.6221 32.4255 10.6221H35.6118C40.8916 10.6221 45.174 14.9012 45.174 20.1843C45.174 25.4674 40.8389 29.7465 35.5591 29.7465H32.4255C27.1457 29.7465 22.8633 25.4674 22.8633 20.1843ZM32.4255 13.8117C28.9067 13.8117 26.0529 16.6655 26.0529 20.1843C26.0529 23.7031 28.9067 26.5569 32.4255 26.5569H35.5591C39.0779 26.5569 41.9877 23.7031 41.9877 20.1843C41.9877 16.6655 39.1338 13.8117 35.6151 13.8117H32.4288H32.4255Z" fill="#5162FF"></path><path fill-rule="evenodd" clip-rule="evenodd" d="M87.5642 10.4181V13.6077C85.925 13.6834 84.4503 14.3812 83.3641 15.4674L78.3114 20.5201V29.5326H75.1218V10.4148H78.3114V16.0138L81.1126 13.2127C82.7749 11.5504 85.0461 10.5003 87.5642 10.4181Z" fill="#5162FF"></path><path fill-rule="evenodd" clip-rule="evenodd" d="M5.3127 10.6221C2.37985 10.6221 0 13.002 0 15.9348C0 18.8676 2.37985 21.2475 5.3127 21.2475H14.8749C16.343 21.2475 17.5312 22.4358 17.5312 23.9039C17.5312 25.237 16.5372 26.5306 15.2732 26.5306H6.76102C5.12837 26.5306 3.49901 25.9085 2.25477 24.6642L0 26.919C1.86636 28.7853 4.31533 29.7202 6.76102 29.7202L14.8716 29.7498C18.0974 29.7498 20.7143 27.1329 20.7143 23.9071C20.7143 20.6813 18.0974 18.0645 14.8716 18.0645H5.30612C4.13429 18.0645 3.1863 17.1132 3.1863 15.9381C3.1863 14.763 4.13759 13.8117 5.3127 13.8117H13.8117C15.4444 13.8117 17.0737 14.4338 18.318 15.6781L20.5727 13.4233C18.7064 11.5569 16.2574 10.6221 13.8117 10.6221H5.3127Z" fill="#5162FF"></path><path fill-rule="evenodd" clip-rule="evenodd" d="M146.088 10.4114H151.401C154.92 10.4114 157.773 13.2653 157.773 16.784C157.773 20.3028 154.92 23.1566 151.401 23.1566H142.902V19.9703H151.401C153.162 19.9703 154.587 18.5451 154.587 16.784C154.587 15.023 153.162 13.5977 151.401 13.5977H146.088C142.569 13.5977 139.715 16.4516 139.715 19.9703C139.715 23.4891 142.569 26.3429 146.088 26.3429L150.338 26.3133C151.97 26.3133 153.6 25.6912 154.844 24.447L157.099 26.7017C155.232 28.5681 152.783 29.5029 150.338 29.5029L146.088 29.5325C140.808 29.5325 136.526 25.2534 136.526 19.9703C136.526 14.6873 140.805 10.4081 146.088 10.4081V10.4114Z" fill="#5162FF"></path><path fill-rule="evenodd" clip-rule="evenodd" d="M109.696 29.9901H112.441V20.1844V20.1449C112.431 17.551 111.394 15.0922 109.561 13.2588C107.717 11.4154 105.242 10.3786 102.635 10.3786H99.6955L99.5738 10.3852L99.452 10.3917L99.3335 10.3983C96.9569 10.5432 94.712 11.5405 93.0234 13.2489L92.9378 13.3345L92.8555 13.42L92.7765 13.5023L92.6942 13.5912L92.6152 13.6801L92.5362 13.769L92.4605 13.8578L92.4375 13.8842H92.4342L92.3848 13.9467L92.3618 13.973H92.3585L92.3091 14.0389L92.2828 14.0718L92.2367 14.131L92.2071 14.1672L92.1643 14.2232L92.1347 14.2627L92.0919 14.3187L92.082 14.3285L92.0227 14.4108L91.9569 14.5063C91.9108 14.5721 91.8648 14.6379 91.822 14.7038L91.7627 14.7959C91.7199 14.8651 91.6771 14.9276 91.6376 14.9934L91.6278 15.0099L91.5718 15.0988L91.5389 15.158L91.5125 15.2008L91.4796 15.2601L91.4533 15.3061L91.3973 15.4049V15.4115L91.3908 15.4214L91.3414 15.5135L91.3085 15.5761L91.2854 15.6189L91.2755 15.6353L91.19 15.7966L91.1735 15.8295L91.1472 15.8822L91.1406 15.8954L91.1208 15.9381L91.0879 16.004L91.0682 16.0501L91.0386 16.1126L91.0188 16.1554L90.9694 16.264L90.9233 16.3726L90.8773 16.4813L90.8312 16.5932L90.7884 16.7051L90.7456 16.817L90.7061 16.9289L90.6666 17.0441L90.6271 17.1593L90.5909 17.2713L90.5711 17.3404V17.347L90.5218 17.5017L90.4888 17.6235L90.4592 17.7387L90.4296 17.8572L90.4 17.9724L90.3736 18.0909L90.3473 18.2127L90.3243 18.3312L90.3012 18.453L90.2815 18.5715L90.2617 18.6932L90.2453 18.815L90.2288 18.9368L90.2123 19.0619L90.1992 19.1837L90.186 19.3022L90.1761 19.4306L90.1663 19.5524L90.1597 19.6774L90.1531 19.8025V19.9737L90.1465 20.056V20.2107C90.1268 22.7782 91.1538 25.2074 92.9411 27.0342L93.0267 27.1198L93.1123 27.2054L93.2012 27.291L93.29 27.3733L93.3789 27.4556L93.4678 27.5379L93.5599 27.6169L93.6521 27.6959L93.7443 27.7716L93.8364 27.8473L93.9319 27.923L94.0274 27.9954L94.1228 28.0678L94.2183 28.1402L94.317 28.2094L94.4158 28.2785L94.5145 28.3443L94.6133 28.4102L94.7153 28.476L94.8174 28.5385L94.9194 28.6011L95.0214 28.6636L95.1235 28.7229L95.2288 28.7821L95.3341 28.8381L95.4395 28.894L95.5448 28.95L95.6501 29.0026L95.7588 29.0553L95.8674 29.1047L95.976 29.1541L96.0846 29.2034L96.1933 29.2495L96.3052 29.2956L96.4171 29.3384L96.529 29.3812L96.6409 29.424L96.7528 29.4635L96.8647 29.503L96.9767 29.5392L97.0919 29.5754L97.2071 29.6083L97.3223 29.6412L97.4375 29.6741L97.5527 29.7038L97.6679 29.7334L97.7831 29.7597L97.9016 29.7861L98.0201 29.8091L98.1386 29.8321L98.2571 29.8519L98.3756 29.8716L98.4941 29.8914L98.6126 29.9078L98.7311 29.9243L98.8496 29.9375L98.9681 29.9506L99.0899 29.9605L99.2117 29.9704L99.3335 29.9803L99.4553 29.9868L99.5771 29.9934H99.6988L99.8206 30H102.638C105.249 30 107.721 28.9631 109.564 27.1198L109.699 26.9816V30L109.696 29.9901ZM109.696 20.2271C109.682 22.0869 108.935 23.8545 107.622 25.1712C106.295 26.4977 104.511 27.2482 102.635 27.2482H99.6758L99.5902 27.2383L99.5046 27.2317L99.4191 27.2252L99.3335 27.2186L99.2479 27.212L99.1623 27.2021L99.0767 27.1922L98.9911 27.1824L98.9056 27.1692L98.82 27.156L98.7344 27.1429L98.6488 27.1264L98.5632 27.11L98.4776 27.0935L98.3921 27.0737L98.3098 27.054L98.2275 27.0342L98.1452 27.0112L98.0629 26.9882L97.9806 26.9651L97.8983 26.9388L97.816 26.9125L97.7337 26.8861L97.6514 26.8598L97.5724 26.8302L97.4934 26.8005L97.4144 26.7709L97.3355 26.738L97.2564 26.7051L97.1774 26.6722L97.0985 26.6393L97.0194 26.603L96.9405 26.5668L96.8647 26.5306L96.789 26.4911L96.7133 26.4516L96.6376 26.4121L96.5619 26.3693L96.4862 26.3265L96.4105 26.2838L96.3381 26.241L96.2657 26.1949L96.1933 26.1488L96.1208 26.1027L96.0484 26.0533L95.976 26.004L95.9036 25.9546L95.8345 25.9052L95.7653 25.8526L95.6962 25.7999L95.6271 25.7472L95.558 25.6946L95.4921 25.6386L95.4263 25.5826L95.3605 25.5267L95.2946 25.4707L95.2288 25.4115L95.163 25.3522L95.1004 25.293L95.0379 25.2337L94.9753 25.1712L94.9128 25.1086C94.8733 25.0659 94.8305 25.0264 94.791 24.9803L94.7318 24.9144C94.6725 24.8486 94.6166 24.7828 94.5606 24.7169L94.5046 24.6511L94.4487 24.5853L94.396 24.5161L94.3434 24.447L94.2907 24.3779L94.1886 24.2364L94.1393 24.1639L94.0899 24.0915L94.0438 24.0191L93.9977 23.9467L93.9517 23.8743L93.9056 23.8019L93.8628 23.7262L93.82 23.6504L93.7772 23.5747L93.7377 23.499L93.6982 23.4233L93.6587 23.3476L93.6192 23.2719L93.583 23.1929L93.5468 23.1139L93.5106 23.0349L93.4777 22.9559L93.4447 22.8769L93.4118 22.7979L93.3789 22.7189L93.3493 22.6399L93.3197 22.5576L93.29 22.4753L93.2637 22.393L93.2374 22.3108L93.211 22.2285L93.188 22.1462L93.1649 22.0639L93.1419 21.9816L93.1189 21.8993L93.0991 21.817L93.0794 21.7314L93.0596 21.6458L93.0432 21.5603L93.0267 21.4747L93.0102 21.3891L92.9971 21.3035L92.9839 21.2179L92.9707 21.1323L92.9609 21.0468L92.951 20.9612L92.9411 20.8756L92.9345 20.79L92.9279 20.7044L92.9214 20.6188L92.9148 20.53V20.4411H92.9115V20.3522V20.2634V20.1745V20.0856V19.9967V19.9079V19.819H92.9148L92.9214 19.7301L92.9279 19.6445L92.9345 19.5589L92.9411 19.4734L92.951 19.3878L92.9609 19.3022L92.9707 19.2166L92.9839 19.131L92.9971 19.0454L93.0102 18.9599L93.0267 18.8743L93.0432 18.7887L93.0596 18.7031L93.0794 18.6175L93.0991 18.532L93.1189 18.4497L93.1419 18.3674L93.1649 18.2851L93.188 18.2028L93.211 18.1205L93.2374 18.0382L93.2637 17.9559L93.29 17.8736L93.3197 17.7913L93.3493 17.7123L93.3789 17.6333L93.4414 17.4753L93.4744 17.3963L93.5073 17.3173L93.5435 17.2383L93.5797 17.1593L93.6159 17.0803L93.6554 17.0046L93.6949 16.9289L93.7344 16.8532L93.7739 16.7775L93.8167 16.7018L93.8595 16.6261L93.9023 16.5504L93.9484 16.478L93.9944 16.4056L94.0405 16.3331L94.0866 16.2607L94.136 16.1883L94.1854 16.1159L94.2347 16.0468L94.2841 15.9776L94.3368 15.9085L94.3894 15.8394L94.4421 15.7703L94.4981 15.7044L94.554 15.6386L94.61 15.5728L94.6659 15.5069L94.7252 15.4411L94.7844 15.3753L94.8437 15.3127L94.9029 15.2502L94.9655 15.1877L95.028 15.1251L95.0906 15.0659L95.1531 15.0066L95.2189 14.9474L95.2848 14.8881L95.3506 14.8322L95.4164 14.7762L95.4823 14.7202L95.5481 14.6643L95.6172 14.6116L95.6863 14.5589L95.7555 14.5063L95.8246 14.4536L95.8937 14.4042L95.9661 14.3549L96.0385 14.3055L96.111 14.2561L96.1834 14.21L96.2558 14.164L96.3282 14.1179L96.4006 14.0751L96.4763 14.0323L96.552 13.9895L96.6278 13.9467L96.7035 13.9072L96.7792 13.8677L96.8549 13.8282L96.9339 13.792L97.0129 13.7558L97.0919 13.7196L97.1709 13.6867L97.2499 13.6537L97.3289 13.6208L97.4079 13.5879L97.4869 13.5583L97.5659 13.5287L97.6482 13.499L97.7304 13.4727L97.8127 13.4464L97.895 13.42L97.9773 13.3937L98.0596 13.3707L98.1419 13.3476L98.2242 13.3246L98.3065 13.3048L98.3888 13.2851L98.4744 13.2653L98.5599 13.2489L98.6455 13.2324L98.7311 13.216L98.8167 13.2028L98.9023 13.1896L98.9878 13.1765L99.0734 13.1666L99.159 13.1567L99.2446 13.1468L99.3302 13.1403L99.4158 13.1337L99.5013 13.1271L99.5869 13.1205H99.6758L99.7647 13.1139H102.635C104.511 13.1139 106.295 13.8611 107.622 15.1877C108.948 16.5142 109.696 18.2982 109.696 20.1745V20.2173V20.2271Z" fill="#5162FF"></path><path fill-rule="evenodd" clip-rule="evenodd" d="M71.4774 26.84V29.684L71.3326 29.6511C67.2148 28.7195 64.2227 24.9769 64.2227 20.7571V3.92035H66.9778V11.6327H70.2167V14.3878H66.9778V20.7538C66.9778 23.522 68.7552 25.9546 71.3984 26.8137L71.4774 26.84Z" fill="#5162FF"></path><path fill-rule="evenodd" clip-rule="evenodd" d="M61.2985 0V3.1863H57.9016C54.3828 3.1863 51.5257 6.04015 51.5257 9.5622V11.6359H55.0345V14.3943H51.5553L51.5685 15.8525V19.4601C51.5388 19.6971 51.5257 19.9407 51.5257 20.1876V29.7498H48.3394V20.1876C48.3394 20.0197 48.3426 19.8551 48.3525 19.6906V19.6576L48.3394 15.0823V9.55891C48.3394 4.27913 52.6185 0 57.8983 0H61.2952H61.2985Z" fill="#5162FF"></path></svg>