<svg xmlns="http://www.w3.org/2000/svg" width="125" height="158" viewBox="0 0 125 158" fill="none"><path d="M102.325 150.562C97.6513 139.528 85.3552 118.744 73.5632 123.886" stroke="#3865F8" stroke-width="4" stroke-linecap="round"></path><path d="M83.124 91.2296C87.2344 100.043 98.8179 116.205 112.268 110.34" stroke="#3865F8" stroke-width="4" stroke-linecap="round"></path><path d="M102.431 150.884C100.106 139.812 98.8178 116.202 112.268 110.337" stroke="#3865F8" stroke-width="4" stroke-linecap="round"></path><path d="M83.1222 91.2285C84.8487 99.9717 85.3539 118.743 73.5619 123.885" stroke="#3865F8" stroke-width="4" stroke-linecap="round"></path><path d="M62.0922 12.4898C61.9667 18.0982 67.0417 31.3297 88.3462 39.3893" stroke="#3865F8" stroke-width="4" stroke-linecap="round"></path><path d="M31.8694 92.3827C36.5091 74.8416 40.4624 37.7442 19.1579 29.6847" stroke="#3865F8" stroke-width="4" stroke-linecap="round"></path><path d="M62.2544 12.0563C56.7646 21.2911 40.459 37.7459 19.1546 29.6864" stroke="#3865F8" stroke-width="4" stroke-linecap="round"></path><path d="M31.871 92.3842C41.8199 71.3621 67.0437 31.3325 88.3482 39.3921" stroke="#3865F8" stroke-width="4" stroke-linecap="round"></path></svg>