<svg xmlns="http://www.w3.org/2000/svg" width="355" height="25" viewBox="0 0 355 25" fill="none"><path fill-rule="evenodd" clip-rule="evenodd" d="M246.865 3.501C176.689 3.39474 58.3949 9.60618 2.09381 13.1323C1.267 13.184 0.554767 12.5558 0.502984 11.729C0.451202 10.9022 1.07948 10.1899 1.90629 10.1381C65.5613 6.15148 208.744 -1.28655 271.868 0.891621L272.023 3.87641C251.728 6.70093 197.829 10.3643 145.801 13.9005C142.562 14.1206 139.33 14.3402 136.115 14.5591C108.653 16.4286 82.3237 18.2462 62.4127 19.8681C55.4526 20.4351 49.284 20.9776 44.1293 21.4894C44.5535 21.4869 44.9846 21.4839 45.4226 21.4805C54.9271 21.4063 67.5014 21.122 82.1507 20.6888C111.447 19.8224 149.01 18.3613 186.84 16.7979C209.62 15.8565 232.504 14.8777 253.74 13.9693C302.995 11.8625 343.378 10.1352 353 10.1352C353.828 10.1352 354.5 10.8068 354.5 11.6352C354.5 12.4636 353.828 13.1352 353 13.1352C343.445 13.1352 303.218 14.8559 254.047 16.9591C232.773 17.869 209.826 18.8506 186.964 19.7954C149.132 21.3588 111.555 22.8205 82.2394 23.6875C67.5827 24.1209 54.983 24.4059 45.4461 24.4804C35.9856 24.5543 29.37 24.4253 26.8189 23.9896L22.8605 23.3134L26.2929 21.2289C26.7281 20.9646 27.3327 20.78 27.9147 20.6331C28.5478 20.4733 29.3428 20.3145 30.2761 20.1552C32.1457 19.8362 34.6561 19.5014 37.7114 19.1525C43.8269 18.454 52.2036 17.6898 62.1691 16.878C82.1037 15.2542 108.454 13.4352 135.911 11.5661C139.086 11.3499 142.276 11.1331 145.472 10.9158C182.693 8.38595 220.778 5.79728 246.865 3.501Z" fill="#5162FF"></path></svg>